<svg viewBox="0 0 538 421" fill="none" xmlns="http://www.w3.org/2000/svg">
  <g filter="url(#filter0_d)">
    <path d="M52.0237 243.034L411.389 178.456L435.844 314.543C436.546 318.451 433.948 322.188 430.04 322.89L84.8251 384.925C80.9176 385.627 77.1806 383.028 76.4784 379.121L52.0237 243.034Z" fill="#F0F0F0"/>
    <path fill-rule="evenodd" clip-rule="evenodd" d="M410.664 179.5L53.067 243.76L77.3628 378.962C77.9772 382.381 81.2471 384.655 84.6662 384.04L429.881 322.005C433.301 321.391 435.574 318.121 434.96 314.702L410.664 179.5ZM52.0237 243.034L76.4784 379.121C77.1806 383.028 80.9176 385.627 84.8251 384.925L430.04 322.89C433.948 322.188 436.546 318.451 435.844 314.543L411.389 178.456L52.0237 243.034Z" fill="#212121"/>
    <path fill-rule="evenodd" clip-rule="evenodd" d="M405.809 284.47L132.146 333.647L131.987 332.763L405.65 283.585L405.809 284.47Z" fill="#212121"/>
    <path fill-rule="evenodd" clip-rule="evenodd" d="M400.559 255.254L126.896 304.431L126.737 303.546L400.4 254.369L400.559 255.254Z" fill="#212121"/>
    <path fill-rule="evenodd" clip-rule="evenodd" d="M395.311 226.037L121.647 275.214L121.488 274.33L395.152 225.152L395.311 226.037Z" fill="#212121"/>
    <path opacity="0.65" d="M42.9694 192.649C42.2672 188.741 44.8657 185.004 48.7733 184.302L397.526 121.632C399.48 121.28 401.348 122.58 401.699 124.533L411.564 179.429L52.1985 244.007L42.9694 192.649Z" fill="#212121"/>
    <path opacity="0.65" fill-rule="evenodd" clip-rule="evenodd" d="M397.685 122.516L48.9322 185.187C45.5131 185.801 43.2394 189.071 43.8538 192.49L52.924 242.964L410.521 178.704L400.815 124.692C400.552 123.227 399.15 122.253 397.685 122.516ZM48.7733 184.302C44.8657 185.004 42.2672 188.741 42.9694 192.649L52.1985 244.007L411.564 179.429L401.699 124.533C401.348 122.58 399.48 121.28 397.526 121.632L48.7733 184.302Z" fill="#F0F0F0"/>
    <path opacity="0.65" d="M32.0894 127.831C30.9805 124.019 33.1676 120.015 36.9745 118.888L376.362 18.4237C378.265 17.8603 380.258 18.9487 380.812 20.8548L396.674 75.3855L46.9476 178.911L32.0894 127.831Z" fill="#212121"/>
    <path opacity="0.65" fill-rule="evenodd" clip-rule="evenodd" d="M376.613 19.2865L37.2255 119.751C33.8945 120.737 31.9807 124.241 32.951 127.576L47.5582 177.793L395.562 74.7777L379.951 21.1098C379.535 19.6803 378.04 18.864 376.613 19.2865ZM36.9745 118.888C33.1676 120.015 30.9805 124.019 32.0894 127.831L46.9476 178.911L396.674 75.3855L380.812 20.8548C380.258 18.9487 378.265 17.8603 376.362 18.4237L36.9745 118.888Z" fill="#F0F0F0"/>
    <path d="M31.0965 126.577C30.441 122.93 32.6661 119.382 36.2353 118.383L69.8002 108.994L140.982 227.773L52.1499 243.737L31.0965 126.577Z" fill="#1473E6"/>
    <path fill-rule="evenodd" clip-rule="evenodd" d="M69.3819 110.044L36.4773 119.249C33.3543 120.122 31.4073 123.227 31.9809 126.419L52.8754 242.693L139.542 227.119L69.3819 110.044ZM69.8002 108.994L36.2353 118.383C32.6661 119.382 30.441 122.93 31.0965 126.577L52.1499 243.737L140.982 227.773L69.8002 108.994Z" fill="#212121"/>
    <path d="M66.737 147.421C67.312 150.621 65.1843 153.681 61.9847 154.256C58.7851 154.831 55.7252 152.703 55.1502 149.503C54.5752 146.304 56.7029 143.244 59.9025 142.669C63.1021 142.094 66.162 144.222 66.737 147.421Z" fill="#F0F0F0"/>
    <path fill-rule="evenodd" clip-rule="evenodd" d="M61.8257 153.371C64.5369 152.884 66.3398 150.291 65.8526 147.58C65.3654 144.869 62.7726 143.066 60.0615 143.553C57.3503 144.04 55.5474 146.633 56.0346 149.344C56.5218 152.056 59.1146 153.858 61.8257 153.371ZM61.9847 154.256C65.1843 153.681 67.312 150.621 66.737 147.421C66.162 144.222 63.1021 142.094 59.9025 142.669C56.7029 143.244 54.5752 146.304 55.1502 149.503C55.7252 152.703 58.7851 154.831 61.9847 154.256Z" fill="#212121"/>
    <path d="M76.0634 221.501C76.6384 224.7 74.5107 227.76 71.3111 228.335C68.1115 228.91 65.0516 226.783 64.4766 223.583C63.9017 220.383 66.0293 217.323 69.2289 216.748C72.4286 216.174 75.4885 218.301 76.0634 221.501Z" fill="#F0F0F0"/>
    <path fill-rule="evenodd" clip-rule="evenodd" d="M71.1522 227.451C73.8633 226.964 75.6662 224.371 75.179 221.66C74.6918 218.949 72.099 217.146 69.3879 217.633C66.6767 218.12 64.8738 220.713 65.361 223.424C65.8482 226.135 68.441 227.938 71.1522 227.451ZM71.3111 228.335C74.5107 227.76 76.6384 224.7 76.0634 221.501C75.4885 218.301 72.4286 216.174 69.2289 216.748C66.0293 217.323 63.9017 220.383 64.4766 223.583C65.0516 226.783 68.1115 228.91 71.3111 228.335Z" fill="#212121"/>
    <path d="M118.547 213.866C119.122 217.066 116.994 220.126 113.795 220.701C110.595 221.275 107.535 219.148 106.96 215.948C106.385 212.749 108.513 209.689 111.713 209.114C114.912 208.539 117.972 210.666 118.547 213.866Z" fill="#F0F0F0"/>
    <path fill-rule="evenodd" clip-rule="evenodd" d="M113.636 219.816C116.347 219.329 118.15 216.736 117.663 214.025C117.175 211.314 114.583 209.511 111.872 209.998C109.16 210.485 107.357 213.078 107.845 215.789C108.332 218.5 110.925 220.303 113.636 219.816ZM113.795 220.701C116.994 220.126 119.122 217.066 118.547 213.866C117.972 210.666 114.912 208.539 111.713 209.114C108.513 209.689 106.385 212.749 106.96 215.948C107.535 219.148 110.595 221.275 113.795 220.701Z" fill="#212121"/>
  </g>
  <path fill-rule="evenodd" clip-rule="evenodd" d="M134.966 170.093C135.411 170.312 135.593 170.851 135.374 171.296L122.843 196.671C122.623 197.116 122.084 197.298 121.639 197.079C121.194 196.859 121.012 196.32 121.231 195.875L133.762 170.5C133.982 170.055 134.521 169.873 134.966 170.093Z" fill="#595959"/>
  <path fill-rule="evenodd" clip-rule="evenodd" d="M198.892 158.816C199.341 159.029 199.532 159.565 199.32 160.013L170.414 221.025C170.201 221.474 169.665 221.665 169.217 221.453C168.768 221.24 168.577 220.704 168.79 220.256L197.696 159.244C197.908 158.795 198.444 158.604 198.892 158.816Z" fill="#595959"/>
  <path fill-rule="evenodd" clip-rule="evenodd" d="M260.689 147.711C261.137 147.924 261.329 148.46 261.116 148.908L232.21 209.92C231.998 210.369 231.462 210.56 231.013 210.348C230.565 210.135 230.374 209.599 230.586 209.151L259.492 148.139C259.704 147.69 260.24 147.499 260.689 147.711Z" fill="#595959"/>
  <path fill-rule="evenodd" clip-rule="evenodd" d="M322.485 136.605C322.934 136.818 323.125 137.354 322.912 137.802L294.006 198.814C293.794 199.263 293.258 199.454 292.81 199.242C292.361 199.029 292.17 198.493 292.382 198.045L321.288 137.033C321.501 136.584 322.037 136.393 322.485 136.605Z" fill="#595959"/>
  <path fill-rule="evenodd" clip-rule="evenodd" d="M384.281 125.501C384.73 125.713 384.921 126.249 384.709 126.698L355.803 187.71C355.59 188.158 355.054 188.35 354.606 188.137C354.157 187.925 353.966 187.389 354.179 186.94L383.085 125.928C383.297 125.48 383.833 125.288 384.281 125.501Z" fill="#595959"/>
  <path fill-rule="evenodd" clip-rule="evenodd" d="M321.771 36.2899C321.463 36.6788 321.528 37.244 321.917 37.5522L375.434 79.9547C375.823 80.2629 376.388 80.1974 376.696 79.8085C377.004 79.4195 376.939 78.8543 376.55 78.5461L323.033 36.1436C322.644 35.8354 322.079 35.9009 321.771 36.2899Z" fill="#595959"/>
  <path fill-rule="evenodd" clip-rule="evenodd" d="M259.698 54.7059C259.39 55.0948 259.455 55.66 259.844 55.9682L313.361 98.3707C313.75 98.6789 314.315 98.6135 314.623 98.2245C314.931 97.8355 314.866 97.2703 314.477 96.9621L260.96 54.5596C260.571 54.2514 260.006 54.3169 259.698 54.7059Z" fill="#595959"/>
  <path fill-rule="evenodd" clip-rule="evenodd" d="M199.506 72.5677C199.198 72.9567 199.264 73.5218 199.653 73.83L253.169 116.233C253.558 116.541 254.123 116.475 254.432 116.086C254.74 115.697 254.674 115.132 254.285 114.824L200.769 72.4214C200.38 72.1132 199.815 72.1787 199.506 72.5677Z" fill="#595959"/>
  <path fill-rule="evenodd" clip-rule="evenodd" d="M139.314 90.4314C139.005 90.8204 139.071 91.3856 139.46 91.6938L192.976 134.096C193.365 134.405 193.931 134.339 194.239 133.95C194.547 133.561 194.481 132.996 194.092 132.688L140.576 90.2852C140.187 89.977 139.622 90.0425 139.314 90.4314Z" fill="#595959"/>
  <path fill-rule="evenodd" clip-rule="evenodd" d="M79.1227 108.292C78.8145 108.681 78.88 109.246 79.2689 109.555L132.785 151.957C133.174 152.265 133.74 152.2 134.048 151.811C134.356 151.422 134.291 150.857 133.902 150.549L80.385 108.146C79.996 107.838 79.4309 107.903 79.1227 108.292Z" fill="#595959"/>
  <path d="M52.0237 243.034L411.389 178.456L435.844 314.543C436.546 318.451 433.948 322.188 430.04 322.89L84.8251 384.925C80.9176 385.627 77.1806 383.028 76.4784 379.121L52.0237 243.034Z" fill="#F0F0F0"/>
  <path fill-rule="evenodd" clip-rule="evenodd" d="M410.664 179.5L53.067 243.76L77.3628 378.962C77.9772 382.381 81.2471 384.655 84.6662 384.04L429.881 322.005C433.301 321.391 435.574 318.121 434.96 314.702L410.664 179.5ZM52.0237 243.034L76.4784 379.121C77.1806 383.028 80.9176 385.627 84.8251 384.925L430.04 322.89C433.948 322.188 436.546 318.451 435.844 314.543L411.389 178.456L52.0237 243.034Z" fill="#212121"/>
  <path fill-rule="evenodd" clip-rule="evenodd" d="M405.809 284.47L132.146 333.647L131.987 332.763L405.65 283.585L405.809 284.47Z" fill="#212121"/>
  <path fill-rule="evenodd" clip-rule="evenodd" d="M400.559 255.254L126.896 304.431L126.737 303.546L400.4 254.369L400.559 255.254Z" fill="#212121"/>
  <path fill-rule="evenodd" clip-rule="evenodd" d="M395.311 226.037L121.647 275.214L121.488 274.33L395.152 225.152L395.311 226.037Z" fill="#212121"/>
  <path fill-rule="evenodd" clip-rule="evenodd" d="M71.517 254.212C71.4731 253.968 71.6355 253.734 71.8797 253.691L85.3976 251.261C85.6419 251.217 85.8754 251.38 85.9193 251.624C85.9632 251.868 85.8008 252.102 85.5566 252.146L72.4808 254.496L75.1776 269.502C75.2215 269.747 75.0591 269.98 74.8148 270.024C74.5706 270.068 74.337 269.906 74.2932 269.661L71.517 254.212Z" fill="#212121"/>
  <path fill-rule="evenodd" clip-rule="evenodd" d="M76.0443 276.864C76.2885 276.82 76.522 276.983 76.5659 277.227L77.954 284.952C77.9979 285.196 77.8355 285.429 77.5913 285.473C77.3471 285.517 77.1135 285.355 77.0696 285.111L75.6815 277.386C75.6376 277.142 75.8 276.908 76.0443 276.864Z" fill="#212121"/>
  <path fill-rule="evenodd" clip-rule="evenodd" d="M421.232 352.056C420.572 352.357 419.932 352.649 419.31 352.931L417.086 348.019C417.749 347.719 418.443 347.401 419.166 347.07C430.983 341.658 450.554 332.693 472.208 338.28C481.172 340.593 492.77 341.293 503.767 339.256C514.778 337.217 524.874 332.501 531.271 324.283L535.526 327.595C528.041 337.209 516.534 342.375 504.749 344.558C492.949 346.743 480.556 346.002 470.861 343.501C451.127 338.409 433.182 346.6 421.232 352.056Z" fill="#64B0F6"/>
  <g opacity="0.9" filter="url(#filter1_d)">
    <path fill-rule="evenodd" clip-rule="evenodd" d="M416.807 353.822C462.668 345.58 493.165 301.722 484.924 255.861C476.682 210 432.824 179.503 386.963 187.744C341.102 195.985 310.605 239.844 318.846 285.705C327.087 331.566 370.946 362.063 416.807 353.822ZM397.758 247.815C408.491 245.886 415.629 235.621 413.7 224.888C411.771 214.155 401.506 207.017 390.773 208.946C380.04 210.875 372.902 221.139 374.831 231.873C376.76 242.606 387.024 249.744 397.758 247.815ZM429.575 313.229C431.504 323.962 424.366 334.227 413.633 336.156C402.899 338.084 392.634 330.947 390.706 320.213C388.777 309.48 395.914 299.215 406.648 297.286C417.381 295.358 427.646 302.495 429.575 313.229ZM359.441 298.472C370.174 296.544 377.312 286.279 375.383 275.545C373.454 264.812 363.189 257.674 352.456 259.603C341.723 261.532 334.585 271.797 336.514 282.53C338.443 293.264 348.707 300.401 359.441 298.472ZM467.256 259.036C469.185 269.769 462.047 280.034 451.314 281.963C440.58 283.892 430.315 276.754 428.387 266.021C426.458 255.287 433.595 245.022 444.329 243.094C455.062 241.165 465.327 248.302 467.256 259.036ZM404.107 283.151C410.938 281.923 415.48 275.391 414.252 268.561C413.025 261.73 406.493 257.188 399.662 258.416C392.832 259.643 388.29 266.175 389.517 273.005C390.745 279.836 397.277 284.378 404.107 283.151Z" fill="#1473E6"/>
  </g>
  <g opacity="0.9" filter="url(#filter2_d)">
    <path fill-rule="evenodd" clip-rule="evenodd" d="M416.648 352.937C462.021 344.784 492.193 301.392 484.039 256.02C475.886 210.647 432.494 180.475 387.122 188.628C341.749 196.782 311.577 240.173 319.731 285.546C327.884 330.918 371.275 361.091 416.648 352.937ZM414.584 224.729C416.601 235.951 409.139 246.683 397.917 248.699C386.695 250.716 375.963 243.254 373.946 232.032C371.93 220.81 379.392 210.078 390.614 208.061C401.836 206.045 412.568 213.507 414.584 224.729ZM430.459 313.07C432.476 324.292 425.013 335.023 413.791 337.04C402.57 339.057 391.838 331.594 389.821 320.372C387.805 309.15 395.267 298.419 406.489 296.402C417.711 294.385 428.443 301.848 430.459 313.07ZM376.267 275.386C378.284 286.608 370.822 297.34 359.6 299.357C348.378 301.373 337.646 293.911 335.629 282.689C333.613 271.467 341.075 260.735 352.297 258.719C363.519 256.702 374.251 264.165 376.267 275.386ZM468.14 258.877C470.157 270.099 462.694 280.831 451.473 282.847C440.251 284.864 429.519 277.402 427.502 266.18C425.486 254.958 432.948 244.226 444.17 242.209C455.392 240.193 466.124 247.655 468.14 258.877ZM415.137 268.402C416.452 275.72 411.585 282.72 404.266 284.035C396.947 285.35 389.948 280.483 388.633 273.164C387.318 265.846 392.185 258.846 399.503 257.531C406.822 256.216 413.822 261.083 415.137 268.402ZM484.924 255.861C493.165 301.722 462.668 345.58 416.807 353.821C370.946 362.063 327.087 331.566 318.846 285.705C310.605 239.844 341.102 195.985 386.963 187.744C432.824 179.503 476.682 210 484.924 255.861ZM413.7 224.888C415.629 235.621 408.491 245.886 397.758 247.815C387.024 249.744 376.76 242.606 374.831 231.873C372.902 221.139 380.04 210.875 390.773 208.946C401.506 207.017 411.771 214.155 413.7 224.888ZM413.633 336.156C424.366 334.227 431.504 323.962 429.575 313.229C427.646 302.495 417.381 295.358 406.648 297.286C395.914 299.215 388.777 309.48 390.706 320.213C392.634 330.947 402.899 338.084 413.633 336.156ZM375.383 275.545C377.312 286.279 370.174 296.544 359.441 298.472C348.707 300.401 338.443 293.264 336.514 282.53C334.585 271.797 341.723 261.532 352.456 259.603C363.189 257.674 373.454 264.812 375.383 275.545ZM451.314 281.963C462.047 280.034 469.185 269.769 467.256 259.036C465.327 248.302 455.062 241.165 444.329 243.094C433.595 245.022 426.458 255.287 428.387 266.021C430.315 276.754 440.58 283.892 451.314 281.963ZM414.252 268.561C415.48 275.391 410.938 281.923 404.107 283.151C397.277 284.378 390.745 279.836 389.517 273.005C388.29 266.175 392.832 259.643 399.662 258.416C406.493 257.188 413.025 261.73 414.252 268.561Z" fill="#F0F0F0"/>
  </g>
  <circle cx="500.775" cy="391.712" r="9.03855" transform="rotate(-16.3644 500.775 391.712)" stroke="#212121" stroke-width="4"/>
  <path d="M498.361 381.922L479.423 317.43" stroke="#212121" stroke-width="4"/>
  <circle cx="463.449" cy="382.658" r="9.03855" transform="rotate(43.6356 463.449 382.658)" stroke="#212121" stroke-width="4"/>
  <path d="M470.721 375.671L517.104 327.024" stroke="#212121" stroke-width="4"/>
  <path d="M503.767 339.257C514.778 337.217 524.873 332.501 531.271 324.283L535.525 327.595C528.041 337.209 516.534 342.376 504.748 344.558C500.691 345.309 496.564 345.715 492.5 345.821L503.767 339.257Z" fill="#64B0F6"/>
  <defs>
    <filter id="filter0_d" x="0.982178" y="6.27539" width="444.977" height="406.764" filterUnits="userSpaceOnUse" color-interpolation-filters="sRGB">
      <feFlood flood-opacity="0" result="BackgroundImageFix"/>
      <feColorMatrix in="SourceAlpha" type="matrix" values="0 0 0 0 0 0 0 0 0 0 0 0 0 0 0 0 0 0 127 0"/>
      <feOffset dx="-10" dy="8"/>
      <feGaussianBlur stdDeviation="10"/>
      <feColorMatrix type="matrix" values="0 0 0 0 0 0 0 0 0 0 0 0 0 0 0 0 0 0 0.45 0"/>
      <feBlend mode="normal" in2="BackgroundImageFix" result="effect1_dropShadow"/>
      <feBlend mode="normal" in="SourceGraphic" in2="effect1_dropShadow" result="shape"/>
    </filter>
    <filter id="filter1_d" x="287.502" y="176.399" width="208.767" height="208.767" filterUnits="userSpaceOnUse" color-interpolation-filters="sRGB">
      <feFlood flood-opacity="0" result="BackgroundImageFix"/>
      <feColorMatrix in="SourceAlpha" type="matrix" values="0 0 0 0 0 0 0 0 0 0 0 0 0 0 0 0 0 0 127 0"/>
      <feOffset dx="-10" dy="10"/>
      <feGaussianBlur stdDeviation="10"/>
      <feColorMatrix type="matrix" values="0 0 0 0 0 0 0 0 0 0 0 0 0 0 0 0 0 0 0.25 0"/>
      <feBlend mode="normal" in2="BackgroundImageFix" result="effect1_dropShadow"/>
      <feBlend mode="normal" in="SourceGraphic" in2="effect1_dropShadow" result="shape"/>
    </filter>
    <filter id="filter2_d" x="287.502" y="176.399" width="208.767" height="208.767" filterUnits="userSpaceOnUse" color-interpolation-filters="sRGB">
      <feFlood flood-opacity="0" result="BackgroundImageFix"/>
      <feColorMatrix in="SourceAlpha" type="matrix" values="0 0 0 0 0 0 0 0 0 0 0 0 0 0 0 0 0 0 127 0"/>
      <feOffset dx="-10" dy="10"/>
      <feGaussianBlur stdDeviation="10"/>
      <feColorMatrix type="matrix" values="0 0 0 0 0 0 0 0 0 0 0 0 0 0 0 0 0 0 0.25 0"/>
      <feBlend mode="normal" in2="BackgroundImageFix" result="effect1_dropShadow"/>
      <feBlend mode="normal" in="SourceGraphic" in2="effect1_dropShadow" result="shape"/>
    </filter>
  </defs>
</svg>
