<svg viewBox="0 0 42 41" fill="none" xmlns="http://www.w3.org/2000/svg">
  <circle cx="21" cy="20.5" r="19.5" stroke="black" stroke-width="2"/>
  <path d="M30.5 20.5C30.5 26.0359 29.3486 30.9982 27.5346 34.5398C25.6934 38.1346 23.3293 40 21 40C18.6707 40 16.3066 38.1346 14.4654 34.5398C12.6514 30.9982 11.5 26.0359 11.5 20.5C11.5 14.9641 12.6514 10.0018 14.4654 6.46019C16.3066 2.86545 18.6707 1 21 1C23.3293 1 25.6934 2.86545 27.5346 6.46019C29.3486 10.0018 30.5 14.9641 30.5 20.5Z" stroke="black" stroke-width="2"/>
  <path d="M4.5 9.5H37.5M4.5 31.5H37.5M1 20.5H41" stroke="black" stroke-width="2"/>
</svg>
